<?xml version="1.0" standalone="no"?><svg xmlns="http://www.w3.org/2000/svg" viewBox="0 0 1440 320"><path fill="#01040f" fill-opacity="1" d="M0,160L40,170.7C80,181,160,203,240,186.7C320,171,400,117,480,106.7C560,96,640,128,720,160C800,192,880,224,960,218.7C1040,213,1120,171,1200,165.3C1280,160,1360,192,1400,208L1440,224L1440,320L1400,320C1360,320,1280,320,1200,320C1120,320,1040,320,960,320C880,320,800,320,720,320C640,320,560,320,480,320C400,320,320,320,240,320C160,320,80,320,40,320L0,320Z"></path></svg>